<?xml version="1.0" standalone="no"?>
<!DOCTYPE svg PUBLIC "-//W3C//DTD SVG 20010904//EN"
 "http://www.w3.org/TR/2001/REC-SVG-20010904/DTD/svg10.dtd">
<svg version="1.0" xmlns="http://www.w3.org/2000/svg"
 width="260.000000pt" height="260.000000pt" viewBox="0 0 260.000000 260.000000"
 preserveAspectRatio="xMidYMid meet">
<metadata>
Created by potrace 1.11, written by Peter Selinger 2001-2013
</metadata>
<g transform="translate(0.000000,260.000000) scale(0.100000,-0.100000)"
fill="#000000" stroke="none">
<path d="M1146 2323 c-316 -66 -558 -298 -641 -613 -23 -86 -28 -274 -9 -360
44 -206 171 -406 323 -511 l49 -33 1 -166 c0 -345 -2 -324 27 -354 36 -35 77
-34 115 3 l29 29 0 640 c0 659 -2 692 -40 712 -33 18 -79 11 -105 -15 -19 -19
-25 -35 -26 -72 0 -26 0 -162 0 -300 0 -139 -4 -253 -8 -253 -17 0 -102 112
-136 180 -69 137 -89 284 -58 432 64 313 342 533 658 522 86 -3 95 -4 172 -27
174 -52 325 -187 402 -360 37 -82 52 -146 56 -237 9 -208 -63 -378 -227 -530
-32 -30 -61 -66 -63 -80 -12 -61 49 -118 105 -99 37 14 131 99 185 170 62 79
118 192 146 292 32 113 32 315 1 429 -44 162 -142 315 -267 420 -88 75 -171
121 -287 159 -79 26 -111 31 -213 34 -78 2 -144 -2 -189 -12z"/>
<path d="M1179 1427 c-36 -28 -39 -51 -39 -332 0 -281 3 -304 39 -332 33 -25
91 -7 110 34 7 16 11 121 11 307 l0 283 -26 27 c-29 28 -68 34 -95 13z"/>
<path d="M1430 1261 c-25 -20 -25 -22 -28 -198 -2 -98 -1 -192 3 -209 13 -70
106 -84 139 -21 15 28 17 57 14 218 -3 160 -5 188 -20 203 -27 27 -79 30 -108
7z"/>
</g>
</svg>
